<svg id="Layer_1" data-name="Layer 1" xmlns="http://www.w3.org/2000/svg" viewBox="0 0 538.37 379"
     style="width: 123px; margin-top: 10px; transition: 0.5s;">
    <style>
        .cls-1 {
        fill: #F89421;
        transition: 0.5s;
        }

        .cls-2 {
        fill: #3A4095;
        transition: 0.5s;
        }

    </style>
    <path class="cls-1"
          d="M241.53,145.64l2.66-.55c-5.29-25.54,6.1-46.68,14.26-57.93a13.91,13.91,0,1,0,7.89-26.28V23.18a15.82,15.82,0,0,0,3.86-1.61c6.47-3.73,9.21-11.12,6.1-16.49s-10.86-6.69-17.33-3A14.16,14.16,0,0,0,251.63,13c-22.29,9.5-43,39.24-44,40.71l2.89,2c.24-.35,20.48-29.44,41.5-39A9.38,9.38,0,0,0,254.83,21a122.07,122.07,0,0,0-43,122.06l3.42-.77a119.21,119.21,0,0,1-2.85-25.95,118,118,0,0,1,1.2-16.76l23.92,45.91c.87,1.77,19.92,40.21,39.13,54.31l2.08-2.83C262.41,185,245.51,153.38,241.53,145.64ZM258.06,22.91a13,13,0,0,0,4.77.78V60.88a13.92,13.92,0,0,0-12.16,13.8,12.44,12.44,0,0,0,.07,1.37l-33.81,7.74A118.14,118.14,0,0,1,258.06,22.91Zm-43.89,73q.83-4.74,2-9.37l.23,1,35.1-8a13.93,13.93,0,0,0,4,5.73,92.22,92.22,0,0,0-6.58,10.43c-5.86,10.86-11.95,27.74-8.64,47.56l-25-47.92Z"></path>
    <path class="cls-2"
          d="M425.65,105.21a20.09,20.09,0,0,0-2-9.09c0-.73,0-1.45,0-2.18a111.8,111.8,0,0,0-8.37-42.55,13.21,13.21,0,1,0-16.78,4,143.21,143.21,0,0,1-17.49,66.5,14.33,14.33,0,0,0-5.5-1.46L365,82.62a15.2,15.2,0,0,0-3.67-29.22c0-.09,0-.18,0-.27l-1.9.14h0a15.21,15.21,0,0,0-3.71,30,89.4,89.4,0,0,1-31.52,47.28,13.91,13.91,0,1,0-23.93,13.27,89.17,89.17,0,0,1-91.87-19,107.4,107.4,0,0,1,2.33-68.69l-3.94-3.45A112.37,112.37,0,1,0,421.22,117.4C423.82,115.4,425.65,110.7,425.65,105.21ZM401.33,56.48a13.55,13.55,0,0,0,3.26.42A13.18,13.18,0,0,0,411.46,55,106.89,106.89,0,0,1,418.74,92l-.31,0c-4,0-7.23,5.92-7.23,13.22a21,21,0,0,0,1.57,8.22l-24.25,17.25a14.48,14.48,0,0,0-5-7.23A146.53,146.53,0,0,0,401.33,56.48Zm-28.08,92.87v23.39c-.23-.24-.46-.47-.71-.69-4.16-3.58-10.94-2.53-15.17,2.36-3.78,4.39-4.21,10.36-1.26,14.13l-40.45-.86c.11-.37.2-.75.28-1.13a147,147,0,0,0,48.7-36.2c.87-1,1.73-2,2.57-3A14.36,14.36,0,0,0,373.25,149.35ZM308.19,173.2V148.55a13.92,13.92,0,0,0,16.68-12.23h35.35a14.41,14.41,0,0,0,4.66,9.3,144.29,144.29,0,0,1-48.76,37.74A11.68,11.68,0,0,0,308.19,173.2Zm50.34-89.54c.3,0,.6,0,.91,0a15.23,15.23,0,0,0,2.89-.28l10.34,37.16a14.47,14.47,0,0,0-12.45,13H324.9A92.29,92.29,0,0,0,358.53,83.66Zm-56,62.27a13.61,13.61,0,0,0,2.87,1.71v25c-.31,0-.61,0-.92,0a11.69,11.69,0,0,0-11.69,11.48c-25.09-9.2-40.07-27.48-45.23-34.71a92.91,92.91,0,0,0,22.1,2.66A91.51,91.51,0,0,0,302.52,145.93Zm-92.35-15.75a91.21,91.21,0,0,0,33.23,18c2.42,3.81,18.81,28.14,49.75,39a11.72,11.72,0,0,0,2,4.16,143.36,143.36,0,0,1-18.9,4.16A108,108,0,0,1,210.17,130.18Zm72,67.17a143.91,143.91,0,0,0,15.29-3.76,11.64,11.64,0,0,0,17-3.13l42.24.9a107.4,107.4,0,0,1-74.5,6Zm93.93-17.7v-30.3a14.49,14.49,0,0,0,13.1-14.43,11.76,11.76,0,0,0-.06-1.2l25.08-17.84a7.36,7.36,0,0,0,1.95,1.85A107.75,107.75,0,0,1,376.05,179.65Z"></path>
    <path class="cls-2" d="M27.28,262.05v8.14H18.37V377.67H8.92V270.19H0v-8.14Z"></path>
    <path class="cls-2" d="M55.25,262.05H79.86v8.14H64.77v45.47h13v8.27h-13V369.4H79.86v8.27H55.25Z"></path>
    <path class="cls-2"
          d="M126.26,300.26V273.19q0-3.87-4.09-3.87h-.07c-2.72,0-4.09,1.29-4.09,3.87V366.8c0,2.62,1.37,3.93,4.09,3.93s4.16-1.31,4.16-3.93v-27h9.52v27q0,12.13-13.68,12.2t-13.61-12.2V273.19q0-12.13,13.61-12.14t13.68,12.14v27.07Z"></path>
    <path class="cls-2" d="M184.19,315.66V262.05h9.52V377.67h-9.52V323.93H176v53.74h-9.52V262.05H176v53.61Z"></path>
    <path class="cls-2" d="M243.2,262.05h9.12V377.67h-6.71l-11.8-70.81v70.81H225V262.05h6.77l11.4,70.68Z"></path>
    <path class="cls-2"
          d="M310.25,366.8q0,12.13-13.67,12.2T283,366.8V273.19q0-12.13,13.61-12.14t13.67,12.14Zm-9.52-93.61q0-3.87-4.09-3.87h-.06q-4.09,0-4.09,3.87V366.8q0,3.93,4.09,3.93t4.15-3.93Z"></path>
    <path class="cls-2" d="M340.9,377.67V262.05h9.52V369.4H365.5v8.27Z"></path>
    <path class="cls-2"
          d="M420.09,366.8q0,12.13-13.68,12.2T392.8,366.8V273.19q0-12.13,13.61-12.14t13.68,12.14Zm-9.52-93.61c0-2.58-1.37-3.87-4.09-3.87h-.07q-4.1,0-4.09,3.87V366.8q0,3.93,4.09,3.93t4.16-3.93Z"></path>
    <path class="cls-2"
          d="M478,315.79v51q0,12.13-13.68,12.2t-13.6-12.2V273.12q0-12.14,13.6-12.14T478,273.12v27.14H468.5V273.12q0-3.87-4.09-3.87h-.07c-2.72,0-4.09,1.29-4.09,3.87V366.8c0,2.62,1.37,3.93,4.09,3.93s4.16-1.31,4.16-3.93V324.06h-4.22v-8.27Z"></path>
    <path class="cls-2"
          d="M515.37,262.05l6.51,45.07,6.43-45.07h10.06L526.9,327.59l-.26,1.47v48.61h-9.52V329.06l-.27-1.47-11.53-65.54Z"></path>
    <path class="cls-1" d="M3.87,73.6h8.5V173.65H3.87Z"></path>
    <path class="cls-1"
          d="M69.33,156.09q0,19.47-16.48,19.53T36.43,156.09V91.62q0-19.47,16.42-19.47T69.33,91.62v11.56h-8.5V91.62q0-9.7-7.93-9.76h-.09q-7.89,0-7.89,9.76v64.47q0,9.76,7.93,9.77t8-9.77V128.77H54.25V119H69.33Z"></path>
    <path class="cls-1"
          d="M125.19,156.09q0,19.47-16.47,19.53T92.3,156.09V91.62q0-19.47,16.42-19.47t16.47,19.47v11.56H116.7V91.62q0-9.7-7.93-9.76h-.09q-7.89,0-7.89,9.76v64.47q0,9.76,7.93,9.77t8-9.77V144.54h8.49Z"></path>
</svg>